# xmcd CD database file
#
# Track frame offsets:
#	150
#	8407
#	29560
#	45251
#	95967
#	116415
#	130542
#	154066
#	171900
#	184835
#	204855
#	233020
#	254185
#	287162
#
# Disc length: 4541 seconds
#
# Revision: 9
# Processed by: cddbd v1.5.2PL0 Copyright (c) Steve Scherf et al.
# Submitted via: CDex 1.51
#
DISCID=b811bb0e
DTITLE=Stevie Ray Vaughan And Double Trouble - S.R.V. (Disc-2)
DYEAR=1900
DGENRE=Rock
TTITLE0=Scuttle Buttin' - Stevie Ray Vaughan And Double Trouble
TTITLE1=Couldn't Stand The Weather - Stevie Ray Vaughan And Double Trouble
TTITLE2=Empty Arms - Stevie Ray Vaughan And Double Trouble
TTITLE3=Little Wing - Third Stone From The Sun (Live) - Stevie Ray Vaughan And Double Trouble
TTITLE4=If You Have To Know - Lonnie Mack (with Stevie Ray Vaughan)
TTITLE5=These Blues Is Killing Me - A.C. Reed (with Stevie Ray Vaughan)
TTITLE6=Boilermaker - Stevie Ray Vaughan And Double Trouble
TTITLE7=Change It - Stevie Ray Vaughan And Double Trouble
TTITLE8=Shake 'N Bake - Stevie Ray Vaughan And Double Trouble
TTITLE9=Mary Had A Little Lamb - Stevie Ray Vaughan And Double Trouble
TTITLE10=I'm Leavin' You (Committ A Crime) - Stevie Ray Vaughan And Double Trouble
TTITLE11=Rude Mood - Pipeline (Live) - Stevie Ray Vaughan and Jimmie Vaughan
TTITLE12=The Sky Is Crying (Live) - Stevie Ray Vaughan And Double Trouble
TTITLE13=Voodoo Chile (Slight Return) (Live) - Stevie Ray Vaughan And Double Trouble
EXTD=The Boxed Set!\n\n3 CDs plus 1 DVD\n\nOver 4 hours of music!\n\n54 total tracks/36 unissued performances (plus one never before on CD]\n\n Includes live performances, studio sessions and rare TV and radio bro \nadcasts\n\n24-bit Mastering form the o
EXTD=riginal sources\n\n72-page book  crammed with unseen photos\n\nPlus 5 incisive essays . SRV timeline  . Quotes from SRV and homeages \nfrom some of rock's biggest stars . Ex tensive track annotations and personnel \nlisting
EXTT0=Taken from the album Couldn't Stand The Weather 1984
EXTT1=Taken from the album Couldn't Stand The Weather 1984
EXTT2=Taken from the album The Sky Is Crying 1984
EXTT3=CBS Records Convention, Honolulu, Hawaii 1984\n\nPreviously unissued
EXTT4=Lonnie Mack (with Stevie Ray Vaughan]\n\nTaken from the album Strike Like Lightning 1984
EXTT5=with A.C. Reed
EXTT6=Outtake from the Soul To Soul sessions 1985\n\nPreviously unissued
EXTT7=Taken from the album Soul To Soul 1985
EXTT8=Outtake from the Soul To Soul sessions 1985\n\nPreviously unissued
EXTT9=Taken from the album Live Alive 1985
EXTT10=MTV's "Mardi Gras" appearance 1987\n\nPreviously unissued
EXTT11=MTV's "Mardi Gras" appearance 1987\n\nPreviously unissued
EXTT12=Recorded at Carnegie Hall, New York, New York 1984\n\nPreviously unissued
EXTT13=Recorded at Carnegie Hall, New York, New York 1984\n\nPreviously unissued
PLAYORDER=
